<svg width="185" height="65" viewBox="0 0 185 65" fill="none" xmlns="http://www.w3.org/2000/svg">
<path opacity="0.6" d="M22.182 42.74L19.586 47.162V50H18.706V47.162L16.11 42.74H17.155L18.563 45.226L19.146 46.26L19.729 45.226L21.137 42.74H22.182ZM24.8 44.39C25.3207 44.39 25.779 44.5037 26.175 44.731C26.5783 44.9583 26.8937 45.2883 27.121 45.721C27.3483 46.1463 27.462 46.656 27.462 47.25C27.462 47.844 27.3483 48.3573 27.121 48.79C26.8937 49.2153 26.5783 49.5417 26.175 49.769C25.779 49.9963 25.3207 50.11 24.8 50.11C24.2867 50.11 23.8283 49.9963 23.425 49.769C23.0217 49.5417 22.7063 49.2153 22.479 48.79C22.2517 48.3573 22.138 47.844 22.138 47.25C22.138 46.656 22.2517 46.1463 22.479 45.721C22.7063 45.2883 23.0217 44.9583 23.425 44.731C23.8283 44.5037 24.2867 44.39 24.8 44.39ZM24.8 45.149C24.426 45.149 24.107 45.2333 23.843 45.402C23.579 45.5707 23.3737 45.8127 23.227 46.128C23.0877 46.436 23.018 46.81 23.018 47.25C23.018 47.6827 23.0877 48.0567 23.227 48.372C23.3737 48.6873 23.579 48.9293 23.843 49.098C24.107 49.2667 24.426 49.351 24.8 49.351C25.174 49.351 25.493 49.2667 25.757 49.098C26.021 48.9293 26.2227 48.6873 26.362 48.372C26.5087 48.0567 26.582 47.6827 26.582 47.25C26.582 46.81 26.5087 46.436 26.362 46.128C26.2227 45.8127 26.021 45.5707 25.757 45.402C25.493 45.2333 25.174 45.149 24.8 45.149ZM31.1097 50.11C30.7577 50.11 30.424 50.044 30.1087 49.912C29.8007 49.78 29.5477 49.5673 29.3497 49.274C29.159 48.9733 29.0637 48.5847 29.0637 48.108V44.5H29.9437V47.877C29.9437 48.4343 30.0647 48.8193 30.3067 49.032C30.5487 49.2373 30.8897 49.34 31.3297 49.34C31.535 49.34 31.7367 49.307 31.9347 49.241C32.1327 49.1677 32.3087 49.0577 32.4627 48.911C32.624 48.757 32.7487 48.5627 32.8367 48.328C32.932 48.0933 32.9797 47.8147 32.9797 47.492V44.5H33.8597V50H33.0897L33.0347 49.164C32.844 49.494 32.5837 49.736 32.2537 49.89C31.931 50.0367 31.5497 50.11 31.1097 50.11ZM40.4141 42.74V43.565H37.8841V50H37.0041V43.565H34.4741V42.74H40.4141ZM43.055 50.11C42.703 50.11 42.3693 50.044 42.054 49.912C41.746 49.78 41.493 49.5673 41.295 49.274C41.1043 48.9733 41.009 48.5847 41.009 48.108V44.5H41.889V47.877C41.889 48.4343 42.01 48.8193 42.252 49.032C42.494 49.2373 42.835 49.34 43.275 49.34C43.4803 49.34 43.682 49.307 43.88 49.241C44.078 49.1677 44.254 49.0577 44.408 48.911C44.5693 48.757 44.694 48.5627 44.782 48.328C44.8773 48.0933 44.925 47.8147 44.925 47.492V44.5H45.805V50H45.035L44.98 49.164C44.7893 49.494 44.529 49.736 44.199 49.89C43.8763 50.0367 43.495 50.11 43.055 50.11ZM50.5481 50.11C50.2401 50.11 49.9541 50.055 49.6901 49.945C49.4261 49.835 49.1987 49.681 49.0081 49.483C48.8174 49.285 48.6744 49.0613 48.5791 48.812L48.7001 48.658L48.6231 50H47.8531V41.97H48.7331V45.743L48.6231 45.578C48.7697 45.2333 49.0154 44.951 49.3601 44.731C49.7121 44.5037 50.1117 44.39 50.5591 44.39C51.0137 44.39 51.4317 44.5037 51.8131 44.731C52.1944 44.9583 52.4987 45.2847 52.7261 45.71C52.9534 46.1353 53.0671 46.6487 53.0671 47.25C53.0671 47.844 52.9497 48.3573 52.7151 48.79C52.4877 49.2153 52.1834 49.5417 51.8021 49.769C51.4207 49.9963 51.0027 50.11 50.5481 50.11ZM50.4601 49.34C51.0027 49.34 51.4244 49.1493 51.7251 48.768C52.0331 48.3867 52.1871 47.8807 52.1871 47.25C52.1871 46.6193 52.0367 46.1133 51.7361 45.732C51.4354 45.3507 51.0137 45.16 50.4711 45.16C50.1264 45.16 49.8221 45.248 49.5581 45.424C49.3014 45.6 49.0997 45.8457 48.9531 46.161C48.8064 46.4763 48.7331 46.8467 48.7331 47.272C48.7331 47.69 48.8027 48.0567 48.9421 48.372C49.0887 48.68 49.2904 48.9183 49.5471 49.087C49.8111 49.2557 50.1154 49.34 50.4601 49.34ZM57.0486 50.11C56.5279 50.11 56.0622 49.9963 55.6516 49.769C55.2482 49.5417 54.9329 49.2153 54.7056 48.79C54.4782 48.3573 54.3646 47.844 54.3646 47.25C54.3646 46.656 54.4782 46.1463 54.7056 45.721C54.9329 45.2883 55.2446 44.9583 55.6406 44.731C56.0366 44.5037 56.4876 44.39 56.9936 44.39C57.5069 44.39 57.9432 44.5 58.3026 44.72C58.6692 44.94 58.9479 45.2407 59.1386 45.622C59.3292 45.996 59.4246 46.4177 59.4246 46.887C59.4246 47.0117 59.4209 47.1253 59.4136 47.228C59.4062 47.3307 59.3952 47.4223 59.3806 47.503H54.9366V46.722H58.9956L58.5446 46.81C58.5446 46.282 58.3979 45.875 58.1046 45.589C57.8186 45.303 57.4409 45.16 56.9716 45.16C56.6122 45.16 56.3006 45.2443 56.0366 45.413C55.7799 45.5743 55.5782 45.8127 55.4316 46.128C55.2922 46.436 55.2226 46.81 55.2226 47.25C55.2226 47.6827 55.2959 48.0567 55.4426 48.372C55.5892 48.6873 55.7946 48.9293 56.0586 49.098C56.3299 49.2593 56.6526 49.34 57.0266 49.34C57.4299 49.34 57.7562 49.263 58.0056 49.109C58.2622 48.955 58.4676 48.746 58.6216 48.482L59.3146 48.889C59.1752 49.1383 58.9956 49.3547 58.7756 49.538C58.5629 49.7213 58.3099 49.8643 58.0166 49.967C57.7306 50.0623 57.4079 50.11 57.0486 50.11ZM65.9304 42.938V48.482C65.9304 48.7533 66.0074 48.955 66.1614 49.087C66.3154 49.219 66.5134 49.285 66.7554 49.285C66.968 49.285 67.1514 49.2483 67.3054 49.175C67.4594 49.1017 67.5987 49.0027 67.7234 48.878L68.0314 49.615C67.8627 49.769 67.661 49.89 67.4264 49.978C67.199 50.066 66.935 50.11 66.6344 50.11C66.3557 50.11 66.0954 50.0623 65.8534 49.967C65.6114 49.8643 65.417 49.7067 65.2704 49.494C65.131 49.274 65.0577 48.988 65.0504 48.636V43.18L65.9304 42.938ZM67.9324 44.5V45.259H63.9504V44.5H67.9324ZM71.5178 44.39C72.0384 44.39 72.4968 44.5037 72.8928 44.731C73.2961 44.9583 73.6114 45.2883 73.8388 45.721C74.0661 46.1463 74.1798 46.656 74.1798 47.25C74.1798 47.844 74.0661 48.3573 73.8388 48.79C73.6114 49.2153 73.2961 49.5417 72.8928 49.769C72.4968 49.9963 72.0384 50.11 71.5178 50.11C71.0044 50.11 70.5461 49.9963 70.1428 49.769C69.7394 49.5417 69.4241 49.2153 69.1968 48.79C68.9694 48.3573 68.8558 47.844 68.8558 47.25C68.8558 46.656 68.9694 46.1463 69.1968 45.721C69.4241 45.2883 69.7394 44.9583 70.1428 44.731C70.5461 44.5037 71.0044 44.39 71.5178 44.39ZM71.5178 45.149C71.1438 45.149 70.8248 45.2333 70.5608 45.402C70.2968 45.5707 70.0914 45.8127 69.9448 46.128C69.8054 46.436 69.7358 46.81 69.7358 47.25C69.7358 47.6827 69.8054 48.0567 69.9448 48.372C70.0914 48.6873 70.2968 48.9293 70.5608 49.098C70.8248 49.2667 71.1438 49.351 71.5178 49.351C71.8918 49.351 72.2108 49.2667 72.4748 49.098C72.7388 48.9293 72.9404 48.6873 73.0798 48.372C73.2264 48.0567 73.2998 47.6827 73.2998 47.25C73.2998 46.81 73.2264 46.436 73.0798 46.128C72.9404 45.8127 72.7388 45.5707 72.4748 45.402C72.2108 45.2333 71.8918 45.149 71.5178 45.149ZM81.7305 50.11C81.2758 50.11 80.8578 49.9963 80.4765 49.769C80.0952 49.5417 79.7908 49.2153 79.5635 48.79C79.3362 48.3573 79.2225 47.844 79.2225 47.25C79.2225 46.6413 79.3435 46.1243 79.5855 45.699C79.8275 45.2737 80.1465 44.951 80.5425 44.731C80.9385 44.5037 81.3638 44.39 81.8185 44.39C82.2732 44.39 82.6655 44.5073 82.9955 44.742C83.3328 44.9767 83.5565 45.2883 83.6665 45.677L83.5565 45.754V41.97H84.4365V50H83.6665L83.5895 48.669L83.7105 48.603C83.6592 48.9257 83.5345 49.2007 83.3365 49.428C83.1458 49.648 82.9075 49.8167 82.6215 49.934C82.3428 50.0513 82.0458 50.11 81.7305 50.11ZM81.8185 49.34C82.1705 49.34 82.4748 49.252 82.7315 49.076C82.9955 48.9 83.1972 48.6507 83.3365 48.328C83.4832 47.998 83.5565 47.613 83.5565 47.173C83.5565 46.755 83.4832 46.3957 83.3365 46.095C83.1972 45.7943 82.9992 45.5633 82.7425 45.402C82.4932 45.2407 82.1998 45.16 81.8625 45.16C81.3052 45.16 80.8725 45.3507 80.5645 45.732C80.2565 46.1133 80.1025 46.6193 80.1025 47.25C80.1025 47.8807 80.2528 48.3867 80.5535 48.768C80.8542 49.1493 81.2758 49.34 81.8185 49.34ZM88.781 50.11C88.2603 50.11 87.7947 49.9963 87.384 49.769C86.9807 49.5417 86.6653 49.2153 86.438 48.79C86.2107 48.3573 86.097 47.844 86.097 47.25C86.097 46.656 86.2107 46.1463 86.438 45.721C86.6653 45.2883 86.977 44.9583 87.373 44.731C87.769 44.5037 88.22 44.39 88.726 44.39C89.2393 44.39 89.6757 44.5 90.035 44.72C90.4017 44.94 90.6803 45.2407 90.871 45.622C91.0617 45.996 91.157 46.4177 91.157 46.887C91.157 47.0117 91.1533 47.1253 91.146 47.228C91.1387 47.3307 91.1277 47.4223 91.113 47.503H86.669V46.722H90.728L90.277 46.81C90.277 46.282 90.1303 45.875 89.837 45.589C89.551 45.303 89.1733 45.16 88.704 45.16C88.3447 45.16 88.033 45.2443 87.769 45.413C87.5123 45.5743 87.3107 45.8127 87.164 46.128C87.0247 46.436 86.955 46.81 86.955 47.25C86.955 47.6827 87.0283 48.0567 87.175 48.372C87.3217 48.6873 87.527 48.9293 87.791 49.098C88.0623 49.2593 88.385 49.34 88.759 49.34C89.1623 49.34 89.4887 49.263 89.738 49.109C89.9947 48.955 90.2 48.746 90.354 48.482L91.047 48.889C90.9077 49.1383 90.728 49.3547 90.508 49.538C90.2953 49.7213 90.0423 49.8643 89.749 49.967C89.463 50.0623 89.1403 50.11 88.781 50.11ZM96.3212 44.5H97.2452L94.9572 50H94.0772L91.7892 44.5H92.7902L94.5282 49.109L96.3212 44.5ZM100.694 50.11C100.173 50.11 99.7077 49.9963 99.2971 49.769C98.8937 49.5417 98.5784 49.2153 98.3511 48.79C98.1237 48.3573 98.0101 47.844 98.0101 47.25C98.0101 46.656 98.1237 46.1463 98.3511 45.721C98.5784 45.2883 98.8901 44.9583 99.2861 44.731C99.6821 44.5037 100.133 44.39 100.639 44.39C101.152 44.39 101.589 44.5 101.948 44.72C102.315 44.94 102.593 45.2407 102.784 45.622C102.975 45.996 103.07 46.4177 103.07 46.887C103.07 47.0117 103.066 47.1253 103.059 47.228C103.052 47.3307 103.041 47.4223 103.026 47.503H98.5821V46.722H102.641L102.19 46.81C102.19 46.282 102.043 45.875 101.75 45.589C101.464 45.303 101.086 45.16 100.617 45.16C100.258 45.16 99.9461 45.2443 99.6821 45.413C99.4254 45.5743 99.2237 45.8127 99.0771 46.128C98.9377 46.436 98.8681 46.81 98.8681 47.25C98.8681 47.6827 98.9414 48.0567 99.0881 48.372C99.2347 48.6873 99.4401 48.9293 99.7041 49.098C99.9754 49.2593 100.298 49.34 100.672 49.34C101.075 49.34 101.402 49.263 101.651 49.109C101.908 48.955 102.113 48.746 102.267 48.482L102.96 48.889C102.821 49.1383 102.641 49.3547 102.421 49.538C102.208 49.7213 101.955 49.8643 101.662 49.967C101.376 50.0623 101.053 50.11 100.694 50.11ZM105.58 41.97V48.603C105.58 48.8817 105.631 49.076 105.734 49.186C105.836 49.2887 106.001 49.34 106.229 49.34C106.375 49.34 106.496 49.329 106.592 49.307C106.687 49.285 106.815 49.2447 106.977 49.186L106.834 49.956C106.716 50.0073 106.588 50.044 106.449 50.066C106.309 50.0953 106.166 50.11 106.02 50.11C105.572 50.11 105.239 49.989 105.019 49.747C104.806 49.505 104.7 49.1347 104.7 48.636V41.97H105.58ZM110.383 44.39C110.904 44.39 111.362 44.5037 111.758 44.731C112.161 44.9583 112.477 45.2883 112.704 45.721C112.931 46.1463 113.045 46.656 113.045 47.25C113.045 47.844 112.931 48.3573 112.704 48.79C112.477 49.2153 112.161 49.5417 111.758 49.769C111.362 49.9963 110.904 50.11 110.383 50.11C109.87 50.11 109.411 49.9963 109.008 49.769C108.605 49.5417 108.289 49.2153 108.062 48.79C107.835 48.3573 107.721 47.844 107.721 47.25C107.721 46.656 107.835 46.1463 108.062 45.721C108.289 45.2883 108.605 44.9583 109.008 44.731C109.411 44.5037 109.87 44.39 110.383 44.39ZM110.383 45.149C110.009 45.149 109.69 45.2333 109.426 45.402C109.162 45.5707 108.957 45.8127 108.81 46.128C108.671 46.436 108.601 46.81 108.601 47.25C108.601 47.6827 108.671 48.0567 108.81 48.372C108.957 48.6873 109.162 48.9293 109.426 49.098C109.69 49.2667 110.009 49.351 110.383 49.351C110.757 49.351 111.076 49.2667 111.34 49.098C111.604 48.9293 111.806 48.6873 111.945 48.372C112.092 48.0567 112.165 47.6827 112.165 47.25C112.165 46.81 112.092 46.436 111.945 46.128C111.806 45.8127 111.604 45.5707 111.34 45.402C111.076 45.2333 110.757 45.149 110.383 45.149ZM114.702 52.31V44.5H115.472L115.549 45.842L115.428 45.688C115.523 45.4313 115.666 45.2077 115.857 45.017C116.047 44.819 116.278 44.665 116.55 44.555C116.821 44.445 117.114 44.39 117.43 44.39C117.877 44.39 118.288 44.5037 118.662 44.731C119.043 44.9583 119.347 45.2847 119.575 45.71C119.802 46.1353 119.916 46.6487 119.916 47.25C119.916 47.844 119.798 48.3573 119.564 48.79C119.336 49.2153 119.032 49.5417 118.651 49.769C118.269 49.9963 117.851 50.11 117.397 50.11C116.942 50.11 116.542 50 116.198 49.78C115.86 49.5527 115.618 49.2667 115.472 48.922L115.582 48.757V52.31H114.702ZM117.309 49.34C117.851 49.34 118.273 49.1493 118.574 48.768C118.882 48.3867 119.036 47.8807 119.036 47.25C119.036 46.6193 118.885 46.1133 118.585 45.732C118.291 45.3507 117.877 45.16 117.342 45.16C116.99 45.16 116.682 45.248 116.418 45.424C116.154 45.5927 115.948 45.8347 115.802 46.15C115.655 46.458 115.582 46.8247 115.582 47.25C115.582 47.668 115.651 48.0347 115.791 48.35C115.937 48.6653 116.139 48.911 116.396 49.087C116.66 49.2557 116.964 49.34 117.309 49.34ZM123.897 50.11C123.377 50.11 122.911 49.9963 122.5 49.769C122.097 49.5417 121.782 49.2153 121.554 48.79C121.327 48.3573 121.213 47.844 121.213 47.25C121.213 46.656 121.327 46.1463 121.554 45.721C121.782 45.2883 122.093 44.9583 122.489 44.731C122.885 44.5037 123.336 44.39 123.842 44.39C124.356 44.39 124.792 44.5 125.151 44.72C125.518 44.94 125.797 45.2407 125.987 45.622C126.178 45.996 126.273 46.4177 126.273 46.887C126.273 47.0117 126.27 47.1253 126.262 47.228C126.255 47.3307 126.244 47.4223 126.229 47.503H121.785V46.722H125.844L125.393 46.81C125.393 46.282 125.247 45.875 124.953 45.589C124.667 45.303 124.29 45.16 123.82 45.16C123.461 45.16 123.149 45.2443 122.885 45.413C122.629 45.5743 122.427 45.8127 122.28 46.128C122.141 46.436 122.071 46.81 122.071 47.25C122.071 47.6827 122.145 48.0567 122.291 48.372C122.438 48.6873 122.643 48.9293 122.907 49.098C123.179 49.2593 123.501 49.34 123.875 49.34C124.279 49.34 124.605 49.263 124.854 49.109C125.111 48.955 125.316 48.746 125.47 48.482L126.163 48.889C126.024 49.1383 125.844 49.3547 125.624 49.538C125.412 49.7213 125.159 49.8643 124.865 49.967C124.579 50.0623 124.257 50.11 123.897 50.11ZM127.947 50V44.5H128.662L128.783 45.402C128.937 45.0647 129.16 44.8117 129.454 44.643C129.754 44.4743 130.117 44.39 130.543 44.39C130.638 44.39 130.741 44.3973 130.851 44.412C130.968 44.4267 131.067 44.456 131.148 44.5L130.994 45.303C130.913 45.2737 130.825 45.2517 130.73 45.237C130.634 45.2223 130.499 45.215 130.323 45.215C130.095 45.215 129.864 45.281 129.63 45.413C129.402 45.545 129.212 45.7467 129.058 46.018C128.904 46.282 128.827 46.6193 128.827 47.03V50H127.947ZM134.181 50.11C133.645 50.11 133.15 49.9963 132.696 49.769C132.248 49.5417 131.904 49.219 131.662 48.801L132.41 48.262C132.571 48.5993 132.806 48.8633 133.114 49.054C133.429 49.2447 133.807 49.34 134.247 49.34C134.635 49.34 134.94 49.2667 135.16 49.12C135.38 48.966 135.49 48.768 135.49 48.526C135.49 48.372 135.438 48.2327 135.336 48.108C135.24 47.976 135.053 47.8807 134.775 47.822L133.455 47.547C132.919 47.437 132.534 47.2537 132.3 46.997C132.072 46.7403 131.959 46.4213 131.959 46.04C131.959 45.7393 132.043 45.4643 132.212 45.215C132.388 44.9657 132.633 44.7677 132.949 44.621C133.271 44.467 133.649 44.39 134.082 44.39C134.624 44.39 135.083 44.4963 135.457 44.709C135.831 44.9217 136.109 45.2223 136.293 45.611L135.556 46.095C135.431 45.7723 135.229 45.5377 134.951 45.391C134.672 45.237 134.382 45.16 134.082 45.16C133.818 45.16 133.59 45.1967 133.4 45.27C133.216 45.3433 133.073 45.446 132.971 45.578C132.875 45.7027 132.828 45.8457 132.828 46.007C132.828 46.1683 132.883 46.3187 132.993 46.458C133.103 46.59 133.308 46.6853 133.609 46.744L134.984 47.03C135.497 47.1327 135.856 47.3013 136.062 47.536C136.267 47.7707 136.37 48.0567 136.37 48.394C136.37 48.7387 136.278 49.043 136.095 49.307C135.911 49.5637 135.655 49.7617 135.325 49.901C134.995 50.0403 134.613 50.11 134.181 50.11Z" fill="#B570EB"/>
<path d="M17.1758 34L21.373 13.957H24.0391L22.3027 22.2832H32.6934L34.4297 13.957H37.1094L32.9258 34H30.2461L32.2148 24.5527H21.8379L19.8555 34H17.1758ZM46.9531 32.1953C46.0964 32.9336 45.2715 33.4759 44.4785 33.8223C43.6855 34.1595 42.8379 34.3281 41.9355 34.3281C40.5957 34.3281 39.5156 33.9362 38.6953 33.1523C37.875 32.3594 37.4648 31.3477 37.4648 30.1172C37.4648 29.306 37.6471 28.5905 38.0117 27.9707C38.3854 27.3418 38.8776 26.8405 39.4883 26.4668C40.099 26.084 40.8464 25.8105 41.7305 25.6465C42.2865 25.5371 43.3392 25.4505 44.8887 25.3867C46.4473 25.3229 47.5638 25.1589 48.2383 24.8945C48.4297 24.2201 48.5254 23.6595 48.5254 23.2129C48.5254 22.6387 48.3158 22.1875 47.8965 21.8594C47.3223 21.4036 46.4837 21.1758 45.3809 21.1758C44.3418 21.1758 43.4896 21.4082 42.8242 21.873C42.168 22.3288 41.6895 22.9805 41.3887 23.8281L38.8867 23.6094C39.3971 22.1693 40.2038 21.0664 41.3066 20.3008C42.4186 19.5352 43.8177 19.1523 45.5039 19.1523C47.2995 19.1523 48.7214 19.5807 49.7695 20.4375C50.5716 21.0755 50.9727 21.9049 50.9727 22.9258C50.9727 23.7005 50.8587 24.5983 50.6309 25.6191L49.8242 29.2285C49.569 30.377 49.4414 31.3112 49.4414 32.0312C49.4414 32.487 49.5417 33.1432 49.7422 34H47.2402C47.1035 33.526 47.0078 32.9245 46.9531 32.1953ZM47.8691 26.6445C47.5228 26.7812 47.1491 26.8861 46.748 26.959C46.3561 27.0319 45.6953 27.1094 44.7656 27.1914C43.3255 27.319 42.3092 27.4831 41.7168 27.6836C41.1243 27.875 40.6777 28.1849 40.377 28.6133C40.0762 29.0417 39.9258 29.5156 39.9258 30.0352C39.9258 30.7279 40.1628 31.2975 40.6367 31.7441C41.1198 32.1908 41.8034 32.4141 42.6875 32.4141C43.5078 32.4141 44.2962 32.1999 45.0527 31.7715C45.8092 31.334 46.4062 30.7279 46.8438 29.9531C47.2812 29.1784 47.623 28.0755 47.8691 26.6445ZM62.7715 28.709L65.2461 28.9688C64.6263 30.7826 63.7422 32.1315 62.5938 33.0156C61.4544 33.8906 60.1556 34.3281 58.6973 34.3281C57.1204 34.3281 55.8398 33.8177 54.8555 32.7969C53.8802 31.776 53.3926 30.3496 53.3926 28.5176C53.3926 26.9316 53.707 25.373 54.3359 23.8418C54.9648 22.3105 55.8626 21.1484 57.0293 20.3555C58.2051 19.5534 59.5449 19.1523 61.0488 19.1523C62.6074 19.1523 63.8424 19.5944 64.7539 20.4785C65.6654 21.3535 66.1211 22.5156 66.1211 23.9648L63.6875 24.1289C63.6784 23.2083 63.4095 22.4883 62.8809 21.9688C62.3613 21.4492 61.6732 21.1895 60.8164 21.1895C59.8229 21.1895 58.9616 21.5039 58.2324 22.1328C57.5033 22.7617 56.929 23.7188 56.5098 25.0039C56.0996 26.2799 55.8945 27.5104 55.8945 28.6953C55.8945 29.9349 56.168 30.8646 56.7148 31.4844C57.2617 32.1042 57.9362 32.4141 58.7383 32.4141C59.5404 32.4141 60.306 32.1087 61.0352 31.498C61.7734 30.8874 62.3522 29.9577 62.7715 28.709ZM66.7773 34L70.9746 13.957H73.4355L70.8379 26.3848L78.0566 19.4805H81.3242L75.1309 24.8945L78.877 34H76.1699L73.2715 26.5488L70.2637 29.1465L69.252 34H66.7773ZM86.1777 34L89.8828 16.2402H83.3066L83.7852 13.957H99.5625L99.084 16.2402H92.5625L88.8574 34H86.1777ZM105.701 31.375C103.96 33.3438 102.178 34.3281 100.355 34.3281C99.2344 34.3281 98.3275 34.0091 97.6348 33.3711C96.9512 32.724 96.6094 31.9355 96.6094 31.0059C96.6094 30.3952 96.7643 29.347 97.0742 27.8613L98.8242 19.4805H101.299L99.3574 28.7637C99.1934 29.5384 99.1113 30.14 99.1113 30.5684C99.1113 31.1152 99.2754 31.5436 99.6035 31.8535C99.9408 32.1543 100.433 32.3047 101.08 32.3047C101.773 32.3047 102.447 32.1361 103.104 31.7988C103.769 31.4616 104.339 31.0059 104.812 30.4316C105.296 29.8574 105.688 29.1784 105.988 28.3945C106.189 27.8932 106.421 27.0137 106.686 25.7559L107.998 19.4805H110.473L107.438 34H105.154L105.701 31.375ZM111.375 34L115.559 13.957H118.033L116.543 21.1211C117.327 20.401 118.038 19.8952 118.676 19.6035C119.314 19.3027 119.979 19.1523 120.672 19.1523C122.03 19.1523 123.16 19.6582 124.062 20.6699C124.974 21.6816 125.43 23.1536 125.43 25.0859C125.43 26.3711 125.247 27.5469 124.883 28.6133C124.518 29.6797 124.067 30.5775 123.529 31.3066C122.992 32.0267 122.436 32.6055 121.861 33.043C121.287 33.4714 120.699 33.7904 120.098 34C119.496 34.2188 118.917 34.3281 118.361 34.3281C117.404 34.3281 116.561 34.0775 115.832 33.5762C115.103 33.0658 114.533 32.291 114.123 31.252L113.549 34H111.375ZM115.039 28.0391L115.025 28.5039C115.025 29.7435 115.322 30.6868 115.914 31.334C116.507 31.9811 117.245 32.3047 118.129 32.3047C118.995 32.3047 119.788 32.0039 120.508 31.4023C121.237 30.7917 121.834 29.8438 122.299 28.5586C122.764 27.2734 122.996 26.0885 122.996 25.0039C122.996 23.7826 122.7 22.8346 122.107 22.1602C121.524 21.4857 120.799 21.1484 119.934 21.1484C119.04 21.1484 118.22 21.4948 117.473 22.1875C116.725 22.8711 116.101 23.9284 115.6 25.3594C115.226 26.4258 115.039 27.319 115.039 28.0391ZM137.625 29.0645L140.031 29.3105C139.685 30.5046 138.887 31.6393 137.639 32.7148C136.399 33.7904 134.918 34.3281 133.195 34.3281C132.12 34.3281 131.131 34.082 130.229 33.5898C129.335 33.0885 128.652 32.3639 128.178 31.416C127.713 30.4681 127.48 29.388 127.48 28.1758C127.48 26.5898 127.845 25.054 128.574 23.5684C129.312 22.0736 130.265 20.9661 131.432 20.2461C132.598 19.5169 133.861 19.1523 135.219 19.1523C136.951 19.1523 138.331 19.6901 139.361 20.7656C140.4 21.8411 140.92 23.3086 140.92 25.168C140.92 25.8789 140.856 26.6081 140.729 27.3555H130.037C130.001 27.638 129.982 27.8932 129.982 28.1211C129.982 29.4792 130.292 30.5182 130.912 31.2383C131.541 31.9492 132.307 32.3047 133.209 32.3047C134.057 32.3047 134.891 32.0267 135.711 31.4707C136.531 30.9147 137.169 30.1126 137.625 29.0645ZM130.434 25.4688H138.582C138.591 25.2135 138.596 25.0312 138.596 24.9219C138.596 23.6823 138.286 22.7344 137.666 22.0781C137.046 21.4128 136.249 21.0801 135.273 21.0801C134.216 21.0801 133.25 21.4447 132.375 22.1738C131.509 22.903 130.862 24.0013 130.434 25.4688Z" fill="white"/>
<path d="M17.1758 34L16.197 33.795L15.9447 35H17.1758V34ZM21.373 13.957V12.957H20.5608L20.3943 13.7521L21.373 13.957ZM24.0391 13.957L25.018 14.1612L25.2691 12.957H24.0391V13.957ZM22.3027 22.2832L21.3238 22.0791L21.0727 23.2832H22.3027V22.2832ZM32.6934 22.2832V23.2832H33.5063L33.6723 22.4873L32.6934 22.2832ZM34.4297 13.957V12.957H33.6167L33.4507 13.7529L34.4297 13.957ZM37.1094 13.957L38.0883 14.1614L38.3397 12.957H37.1094V13.957ZM32.9258 34V35H33.7386L33.9047 34.2043L32.9258 34ZM30.2461 34L29.2671 33.796L29.0162 35H30.2461V34ZM32.2148 24.5527L33.1938 24.7567L33.4447 23.5527H32.2148V24.5527ZM21.8379 24.5527V23.5527H21.026L20.8592 24.3474L21.8379 24.5527ZM19.8555 34V35H20.6674L20.8342 34.2054L19.8555 34ZM18.1546 34.205L22.3518 14.162L20.3943 13.7521L16.197 33.795L18.1546 34.205ZM21.373 14.957H24.0391V12.957H21.373V14.957ZM23.0601 13.7529L21.3238 22.0791L23.2817 22.4873L25.018 14.1612L23.0601 13.7529ZM22.3027 23.2832H32.6934V21.2832H22.3027V23.2832ZM33.6723 22.4873L35.4086 14.1612L33.4507 13.7529L31.7144 22.0791L33.6723 22.4873ZM34.4297 14.957H37.1094V12.957H34.4297V14.957ZM36.1305 13.7527L31.9469 33.7957L33.9047 34.2043L38.0883 14.1614L36.1305 13.7527ZM32.9258 33H30.2461V35H32.9258V33ZM31.2251 34.204L33.1938 24.7567L31.2359 24.3487L29.2671 33.796L31.2251 34.204ZM32.2148 23.5527H21.8379V25.5527H32.2148V23.5527ZM20.8592 24.3474L18.8768 33.7946L20.8342 34.2054L22.8166 24.7581L20.8592 24.3474ZM19.8555 33H17.1758V35H19.8555V33ZM46.9531 32.1953L47.9503 32.1205L47.8021 30.1437L46.3003 31.4378L46.9531 32.1953ZM44.4785 33.8223L44.8699 34.7425L44.8788 34.7387L44.4785 33.8223ZM38.6953 33.1523L38.0003 33.8713L38.0045 33.8753L38.6953 33.1523ZM38.0117 27.9707L37.152 27.4599L37.1498 27.4637L38.0117 27.9707ZM39.4883 26.4668L40.0103 27.3198L40.0194 27.3141L39.4883 26.4668ZM41.7305 25.6465L41.9129 26.6298L41.9235 26.6277L41.7305 25.6465ZM44.8887 25.3867L44.8478 24.3876L44.8475 24.3876L44.8887 25.3867ZM48.2383 24.8945L48.6032 25.8256L49.0649 25.6446L49.2003 25.1675L48.2383 24.8945ZM47.8965 21.8594L47.2748 22.6427L47.2802 22.6469L47.8965 21.8594ZM42.8242 21.873L43.3946 22.6944L43.3969 22.6928L42.8242 21.873ZM41.3887 23.8281L41.3016 24.8243L42.0724 24.8917L42.3311 24.1625L41.3887 23.8281ZM38.8867 23.6094L37.9442 23.2753L37.5126 24.493L38.7996 24.6056L38.8867 23.6094ZM41.3066 20.3008L40.7395 19.4771L40.7364 19.4793L41.3066 20.3008ZM49.7695 20.4375L49.1366 21.2118L49.147 21.2201L49.7695 20.4375ZM50.6309 25.6191L51.6068 25.8372L51.6068 25.837L50.6309 25.6191ZM49.8242 29.2285L48.8483 29.0104L48.848 29.0116L49.8242 29.2285ZM49.7422 34V35H51.0033L50.7159 33.7721L49.7422 34ZM47.2402 34L46.2794 34.2772L46.4879 35H47.2402V34ZM47.8691 26.6445L48.8547 26.814L49.1561 25.0614L47.502 25.7144L47.8691 26.6445ZM46.748 26.959L46.5692 25.9751L46.5651 25.9759L46.748 26.959ZM44.7656 27.1914L44.6777 26.1953L44.6774 26.1953L44.7656 27.1914ZM41.7168 27.6836L42.0243 28.6353L42.0374 28.6308L41.7168 27.6836ZM40.6367 31.7441L39.9509 32.472L39.9579 32.4784L40.6367 31.7441ZM45.0527 31.7715L45.5455 32.6417L45.5534 32.6371L45.0527 31.7715ZM46.3003 31.4378C45.4975 32.1296 44.7564 32.6097 44.0782 32.9059L44.8788 34.7387C45.7865 34.3422 46.6952 33.7376 47.6059 32.9529L46.3003 31.4378ZM44.0872 32.902C43.4238 33.1842 42.7099 33.3281 41.9355 33.3281V35.3281C42.9659 35.3281 43.9473 35.1348 44.8699 34.7425L44.0872 32.902ZM41.9355 33.3281C40.8033 33.3281 39.9873 33.0038 39.3862 32.4294L38.0045 33.8753C39.0439 34.8686 40.3881 35.3281 41.9355 35.3281V33.3281ZM39.3903 32.4334C38.7813 31.8446 38.4648 31.1002 38.4648 30.1172H36.4648C36.4648 31.5951 36.9687 32.8741 38.0003 33.8713L39.3903 32.4334ZM38.4648 30.1172C38.4648 29.4609 38.6106 28.9249 38.8737 28.4777L37.1498 27.4637C36.6837 28.2561 36.4648 29.151 36.4648 30.1172H38.4648ZM38.8714 28.4815C39.1639 27.9893 39.5414 27.6067 40.0102 27.3198L38.9663 25.6138C38.2138 26.0743 37.6069 26.6943 37.152 27.4599L38.8714 28.4815ZM40.0194 27.3141C40.5007 27.0124 41.123 26.7763 41.9129 26.6297L41.548 24.6633C40.5697 24.8448 39.6973 25.1556 38.9571 25.6195L40.0194 27.3141ZM41.9235 26.6277C42.3935 26.5352 43.3727 26.45 44.9298 26.3859L44.8475 24.3876C43.3057 24.4511 42.1794 24.539 41.5374 24.6653L41.9235 26.6277ZM44.9296 26.3859C46.5013 26.3215 47.7622 26.1552 48.6032 25.8256L47.8734 23.9635C47.3654 24.1625 46.3932 24.3243 44.8478 24.3876L44.9296 26.3859ZM49.2003 25.1675C49.4043 24.4486 49.5254 23.7887 49.5254 23.2129H47.5254C47.5254 23.5303 47.4551 23.9915 47.2763 24.6215L49.2003 25.1675ZM49.5254 23.2129C49.5254 22.359 49.1953 21.606 48.5128 21.0719L47.2802 22.6469C47.4362 22.769 47.5254 22.9184 47.5254 23.2129H49.5254ZM48.5181 21.0761C47.6974 20.4247 46.6006 20.1758 45.3809 20.1758V22.1758C46.3668 22.1758 46.9471 22.3826 47.2748 22.6427L48.5181 21.0761ZM45.3809 20.1758C44.1943 20.1758 43.1264 20.4421 42.2515 21.0533L43.3969 22.6928C43.8528 22.3743 44.4893 22.1758 45.3809 22.1758V20.1758ZM42.2538 21.0517C41.4044 21.6416 40.8078 22.4747 40.4462 23.4937L42.3311 24.1625C42.5711 23.4863 42.9315 23.016 43.3946 22.6944L42.2538 21.0517ZM41.4758 22.8319L38.9738 22.6132L38.7996 24.6056L41.3016 24.8243L41.4758 22.8319ZM39.8293 23.9434C40.2797 22.6724 40.9693 21.7523 41.8769 21.1222L40.7364 19.4793C39.4383 20.3805 38.5145 21.6661 37.9442 23.2753L39.8293 23.9434ZM41.8737 21.1244C42.7815 20.4994 43.9695 20.1523 45.5039 20.1523V18.1523C43.6659 18.1523 42.0557 18.5709 40.7395 19.4771L41.8737 21.1244ZM45.5039 20.1523C47.1445 20.1523 48.318 20.5426 49.1367 21.2118L50.4024 19.6632C49.1247 18.6188 47.4545 18.1523 45.5039 18.1523V20.1523ZM49.147 21.2201C49.7117 21.6693 49.9727 22.2111 49.9727 22.9258H51.9727C51.9727 21.5988 51.4315 20.4818 50.3921 19.6549L49.147 21.2201ZM49.9727 22.9258C49.9727 23.6069 49.8719 24.4289 49.6549 25.4013L51.6068 25.837C51.8455 24.7677 51.9727 23.7942 51.9727 22.9258H49.9727ZM49.6549 25.401L48.8483 29.0104L50.8001 29.4466L51.6068 25.8372L49.6549 25.401ZM48.848 29.0116C48.5856 30.1925 48.4414 31.2071 48.4414 32.0312H50.4414C50.4414 31.4153 50.5524 30.5614 50.8004 29.4454L48.848 29.0116ZM48.4414 32.0312C48.4414 32.6051 48.5635 33.3519 48.7685 34.2279L50.7159 33.7721C50.5199 32.9346 50.4414 32.3689 50.4414 32.0312H48.4414ZM49.7422 33H47.2402V35H49.7422V33ZM48.2011 33.7228C48.0901 33.3383 48.0021 32.8106 47.9503 32.1205L45.9559 32.2701C46.0135 33.0384 46.1169 33.7138 46.2794 34.2772L48.2011 33.7228ZM47.502 25.7144C47.2219 25.8249 46.9118 25.9128 46.5692 25.9751L46.9269 27.9429C47.3863 27.8593 47.8237 27.7376 48.2363 27.5747L47.502 25.7144ZM46.5651 25.9759C46.2249 26.0392 45.6063 26.1133 44.6777 26.1953L44.8535 28.1875C45.7843 28.1054 46.4874 28.0246 46.931 27.9421L46.5651 25.9759ZM44.6774 26.1953C43.2339 26.3232 42.1121 26.4941 41.3962 26.7364L42.0374 28.6308C42.5064 28.4721 43.4171 28.3148 44.8539 28.1875L44.6774 26.1953ZM41.4094 26.732C40.6506 26.9772 40.0066 27.4006 39.5585 28.0387L41.1954 29.1879C41.3489 28.9692 41.5981 28.7728 42.0242 28.6352L41.4094 26.732ZM39.5585 28.0387C39.1405 28.634 38.9258 29.3083 38.9258 30.0352H40.9258C40.9258 29.7229 41.0118 29.4493 41.1954 29.1879L39.5585 28.0387ZM38.9258 30.0352C38.9258 30.9837 39.2626 31.8233 39.9509 32.4719L41.3225 31.0164C41.0629 30.7718 40.9258 30.472 40.9258 30.0352H38.9258ZM39.9579 32.4784C40.6816 33.1475 41.6398 33.4141 42.6875 33.4141V31.4141C41.9669 31.4141 41.558 31.234 41.3156 31.0099L39.9579 32.4784ZM42.6875 33.4141C43.6909 33.4141 44.648 33.1499 45.5455 32.6417L44.56 30.9013C43.9444 31.2499 43.3247 31.4141 42.6875 31.4141V33.4141ZM45.5534 32.6371C46.4673 32.1086 47.1909 31.3721 47.7145 30.4448L45.973 29.4614C45.6216 30.0837 45.1512 30.5594 44.5521 30.9058L45.5534 32.6371ZM47.7145 30.4448C48.2329 29.5269 48.5998 28.296 48.8547 26.814L46.8836 26.475C46.6463 27.855 46.3296 28.8299 45.973 29.4614L47.7145 30.4448ZM62.7715 28.709L62.8759 27.7144L62.0787 27.6308L61.8235 28.3907L62.7715 28.709ZM65.2461 28.9688L66.1924 29.2921L66.598 28.1052L65.3505 27.9742L65.2461 28.9688ZM62.5938 33.0156L63.2028 33.8087L63.2038 33.808L62.5938 33.0156ZM54.8555 32.7969L54.1324 33.4877L54.1356 33.491L54.8555 32.7969ZM57.0293 20.3555L57.5914 21.1825L57.5928 21.1816L57.0293 20.3555ZM64.7539 20.4785L64.0576 21.1963L64.0614 21.1999L64.7539 20.4785ZM66.1211 23.9648L66.1884 24.9626L67.1211 24.8997V23.9648H66.1211ZM63.6875 24.1289L62.6875 24.1388L62.698 25.1979L63.7548 25.1266L63.6875 24.1289ZM62.8809 21.9688L62.1737 22.6759L62.1799 22.682L62.8809 21.9688ZM58.2324 22.1328L57.5793 21.3756L58.2324 22.1328ZM56.5098 25.0039L55.5591 24.6938L55.5577 24.6979L56.5098 25.0039ZM61.0352 31.498L60.3978 30.7275L60.3931 30.7314L61.0352 31.498ZM62.6671 29.7035L65.1417 29.9633L65.3505 27.9742L62.8759 27.7144L62.6671 29.7035ZM64.2998 28.6454C63.7234 30.3321 62.9335 31.4921 61.9837 32.2232L63.2038 33.808C64.5509 32.7709 65.5292 31.233 66.1924 29.2921L64.2998 28.6454ZM61.9847 32.2225C61.0229 32.9612 59.9389 33.3281 58.6973 33.3281V35.3281C60.3723 35.3281 61.886 34.8201 63.2028 33.8087L61.9847 32.2225ZM58.6973 33.3281C57.3585 33.3281 56.3492 32.9053 55.5753 32.1027L54.1356 33.491C55.3305 34.7301 56.8824 35.3281 58.6973 35.3281V33.3281ZM55.5785 32.1061C54.8292 31.3217 54.3926 30.1716 54.3926 28.5176H52.3926C52.3926 30.5276 52.9313 32.2304 54.1324 33.4877L55.5785 32.1061ZM54.3926 28.5176C54.3926 27.0676 54.6794 25.6378 55.261 24.2217L53.4109 23.4619C52.7347 25.1083 52.3926 26.7956 52.3926 28.5176H54.3926ZM55.261 24.2217C55.8286 22.8397 56.6135 21.8472 57.5914 21.1825L56.4672 19.5284C55.1118 20.4497 54.1011 21.7814 53.4109 23.4619L55.261 24.2217ZM57.5928 21.1816C58.5929 20.4994 59.734 20.1523 61.0488 20.1523V18.1523C59.3559 18.1523 57.8173 18.6074 56.4658 19.5294L57.5928 21.1816ZM61.0488 20.1523C62.41 20.1523 63.3733 20.5325 64.0576 21.1963L65.4502 19.7607C64.3116 18.6563 62.8048 18.1523 61.0488 18.1523V20.1523ZM64.0614 21.1999C64.7469 21.8581 65.1211 22.7442 65.1211 23.9648H67.1211C67.1211 22.2871 66.5838 20.849 65.4464 19.7571L64.0614 21.1999ZM66.0538 22.9671L63.6202 23.1312L63.7548 25.1266L66.1884 24.9626L66.0538 22.9671ZM64.6875 24.119C64.6764 23.0015 64.3427 22.0033 63.5818 21.2555L62.1799 22.682C62.4763 22.9732 62.6804 23.4152 62.6875 24.1388L64.6875 24.119ZM63.588 21.2616C62.8497 20.5234 61.8908 20.1895 60.8164 20.1895V22.1895C61.4555 22.1895 61.8729 22.375 62.1738 22.6759L63.588 21.2616ZM60.8164 20.1895C59.5915 20.1895 58.4962 20.5847 57.5793 21.3756L58.8855 22.8901C59.4269 22.4231 60.0544 22.1895 60.8164 22.1895V20.1895ZM57.5793 21.3756C56.6671 22.1623 56.0131 23.302 55.5591 24.6938L57.4605 25.3141C57.8449 24.1355 58.3394 23.3611 58.8855 22.8901L57.5793 21.3756ZM55.5577 24.6979C55.1199 26.0601 54.8945 27.3939 54.8945 28.6953H56.8945C56.8945 27.6269 57.0793 26.4998 57.4618 25.3099L55.5577 24.6979ZM54.8945 28.6953C54.8945 30.0604 55.1929 31.271 55.965 32.146L57.4647 30.8228C57.143 30.4582 56.8945 29.8094 56.8945 28.6953H54.8945ZM55.965 32.146C56.6951 32.9734 57.6394 33.4141 58.7383 33.4141V31.4141C58.233 31.4141 57.8283 31.2349 57.4647 30.8228L55.965 32.146ZM58.7383 33.4141C59.8171 33.4141 60.8031 32.9968 61.6772 32.2647L60.3931 30.7314C59.8089 31.2207 59.2636 31.4141 58.7383 31.4141V33.4141ZM61.6725 32.2686C62.5987 31.5025 63.2623 30.389 63.7195 29.0273L61.8235 28.3907C61.4422 29.5264 60.9481 30.2723 60.3978 30.7275L61.6725 32.2686ZM66.7773 34L65.7986 33.795L65.5462 35H66.7773V34ZM70.9746 13.957V12.957H70.1623L69.9958 13.7521L70.9746 13.957ZM73.4355 13.957L74.4144 14.1616L74.6662 12.957H73.4355V13.957ZM70.8379 26.3848L69.859 26.1802L69.1995 29.3355L71.5291 27.1074L70.8379 26.3848ZM78.0566 19.4805V18.4805H77.6554L77.3654 18.7578L78.0566 19.4805ZM81.3242 19.4805L81.9824 20.2334L83.9876 18.4805H81.3242V19.4805ZM75.1309 24.8945L74.4727 24.1416L73.9337 24.6129L74.2061 25.275L75.1309 24.8945ZM78.877 34V35H80.3697L79.8017 33.6195L78.877 34ZM76.1699 34L75.2379 34.3625L75.4859 35H76.1699V34ZM73.2715 26.5488L74.2035 26.1863L73.6899 24.8661L72.6179 25.792L73.2715 26.5488ZM70.2637 29.1465L69.6101 28.3897L69.3538 28.611L69.2847 28.9424L70.2637 29.1465ZM69.252 34V35H70.065L70.2309 34.2041L69.252 34ZM67.7561 34.205L71.9534 14.162L69.9958 13.7521L65.7986 33.795L67.7561 34.205ZM70.9746 14.957H73.4355V12.957H70.9746V14.957ZM72.4567 13.7524L69.859 26.1802L71.8167 26.5894L74.4144 14.1616L72.4567 13.7524ZM71.5291 27.1074L78.7478 20.2031L77.3654 18.7578L70.1467 25.6621L71.5291 27.1074ZM78.0566 20.4805H81.3242V18.4805H78.0566V20.4805ZM80.6661 18.7276L74.4727 24.1416L75.789 25.6474L81.9824 20.2334L80.6661 18.7276ZM74.2061 25.275L77.9522 34.3805L79.8017 33.6195L76.0557 24.5141L74.2061 25.275ZM78.877 33H76.1699V35H78.877V33ZM77.1019 33.6375L74.2035 26.1863L72.3395 26.9114L75.2379 34.3625L77.1019 33.6375ZM72.6179 25.792L69.6101 28.3897L70.9173 29.9033L73.9251 27.3057L72.6179 25.792ZM69.2847 28.9424L68.273 33.7959L70.2309 34.2041L71.2426 29.3505L69.2847 28.9424ZM69.252 33H66.7773V35H69.252V33ZM86.1777 34L85.1988 33.7958L84.9476 35H86.1777V34ZM89.8828 16.2402L90.8617 16.4445L91.113 15.2402H89.8828V16.2402ZM83.3066 16.2402L82.3279 16.0351L82.0753 17.2402H83.3066V16.2402ZM83.7852 13.957V12.957H82.973L82.8064 13.7519L83.7852 13.957ZM99.5625 13.957L100.541 14.1622L100.794 12.957H99.5625V13.957ZM99.084 16.2402V17.2402H99.8961L100.063 16.4454L99.084 16.2402ZM92.5625 16.2402V15.2402H91.7496L91.5836 16.036L92.5625 16.2402ZM88.8574 34V35H89.6703L89.8363 34.2042L88.8574 34ZM87.1567 34.2042L90.8617 16.4445L88.9039 16.036L85.1988 33.7958L87.1567 34.2042ZM89.8828 15.2402H83.3066V17.2402H89.8828V15.2402ZM84.2854 16.4454L84.7639 14.1622L82.8064 13.7519L82.3279 16.0351L84.2854 16.4454ZM83.7852 14.957H99.5625V12.957H83.7852V14.957ZM98.5838 13.7519L98.1052 16.0351L100.063 16.4454L100.541 14.1622L98.5838 13.7519ZM99.084 15.2402H92.5625V17.2402H99.084V15.2402ZM91.5836 16.036L87.8785 33.7958L89.8363 34.2042L93.5414 16.4445L91.5836 16.036ZM88.8574 33H86.1777V35H88.8574V33ZM105.701 31.375L106.68 31.579L107.449 27.8889L104.952 30.7126L105.701 31.375ZM97.6348 33.3711L96.9472 34.0974L96.9573 34.1066L97.6348 33.3711ZM97.0742 27.8613L96.0953 27.6569L96.0953 27.6571L97.0742 27.8613ZM98.8242 19.4805V18.4805H98.0115L97.8453 19.2761L98.8242 19.4805ZM101.299 19.4805L102.278 19.6852L102.53 18.4805H101.299V19.4805ZM99.3574 28.7637L100.336 28.9708L100.336 28.9684L99.3574 28.7637ZM99.6035 31.8535L98.9169 32.5805L98.9273 32.5903L98.9379 32.5998L99.6035 31.8535ZM103.104 31.7988L102.651 30.9068L102.646 30.9094L103.104 31.7988ZM104.812 30.4316L104.047 29.7879L104.041 29.7951L104.812 30.4316ZM105.988 28.3945L105.06 28.0231L105.055 28.0363L105.988 28.3945ZM106.686 25.7559L107.664 25.9615L107.664 25.9606L106.686 25.7559ZM107.998 19.4805V18.4805H107.186L107.019 19.2757L107.998 19.4805ZM110.473 19.4805L111.451 19.6851L111.703 18.4805H110.473V19.4805ZM107.438 34V35H108.25L108.416 34.2046L107.438 34ZM105.154 34L104.175 33.796L103.924 35H105.154V34ZM104.952 30.7126C103.315 32.5637 101.784 33.3281 100.355 33.3281V35.3281C102.573 35.3281 104.605 34.1238 106.45 32.0374L104.952 30.7126ZM100.355 33.3281C99.4347 33.3281 98.7862 33.0721 98.3122 32.6355L96.9573 34.1066C97.8688 34.9462 99.034 35.3281 100.355 35.3281V33.3281ZM98.3222 32.6449C97.8353 32.1839 97.6094 31.657 97.6094 31.0059H95.6094C95.6094 32.2141 96.067 33.264 96.9473 34.0973L98.3222 32.6449ZM97.6094 31.0059C97.6094 30.5101 97.7427 29.554 98.0531 28.0655L96.0953 27.6571C95.786 29.1401 95.6094 30.2802 95.6094 31.0059H97.6094ZM98.0531 28.0657L99.8031 19.6849L97.8453 19.2761L96.0953 27.6569L98.0531 28.0657ZM98.8242 20.4805H101.299V18.4805H98.8242V20.4805ZM100.32 19.2758L98.3786 28.559L100.336 28.9684L102.278 19.6852L100.32 19.2758ZM98.3791 28.5565C98.2106 29.3524 98.1113 30.0348 98.1113 30.5684H100.111C100.111 30.2452 100.176 29.7245 100.336 28.9708L98.3791 28.5565ZM98.1113 30.5684C98.1113 31.3276 98.3473 32.0426 98.9169 32.5805L100.29 31.1265C100.203 31.0446 100.111 30.9028 100.111 30.5684H98.1113ZM98.9379 32.5998C99.5239 33.1225 100.292 33.3047 101.08 33.3047V31.3047C100.573 31.3047 100.358 31.1861 100.269 31.1072L98.9379 32.5998ZM101.08 33.3047C101.942 33.3047 102.772 33.0933 103.561 32.6883L102.646 30.9094C102.122 31.1788 101.604 31.3047 101.08 31.3047V33.3047ZM103.556 32.6908C104.344 32.2914 105.022 31.7488 105.584 31.0682L104.041 29.7951C103.655 30.2629 103.194 30.6318 102.651 30.9069L103.556 32.6908ZM105.578 31.0754C106.14 30.4066 106.586 29.6283 106.922 28.7528L105.055 28.0363C104.789 28.7285 104.451 29.3083 104.047 29.7879L105.578 31.0754ZM106.917 28.7659C107.153 28.1759 107.4 27.22 107.664 25.9615L105.707 25.5502C105.443 26.8074 105.225 27.6106 105.06 28.0231L106.917 28.7659ZM107.664 25.9606L108.977 19.6852L107.019 19.2757L105.707 25.5511L107.664 25.9606ZM107.998 20.4805H110.473V18.4805H107.998V20.4805ZM109.494 19.2759L106.459 33.7954L108.416 34.2046L111.451 19.6851L109.494 19.2759ZM107.438 33H105.154V35H107.438V33ZM106.133 34.204L106.68 31.579L104.722 31.171L104.175 33.796L106.133 34.204ZM111.375 34L110.396 33.7957L110.145 35H111.375V34ZM115.559 13.957V12.957H114.746L114.58 13.7527L115.559 13.957ZM118.033 13.957L119.012 14.1607L119.263 12.957H118.033V13.957ZM116.543 21.1211L115.564 20.9174L114.931 23.9596L117.219 21.8575L116.543 21.1211ZM118.676 19.6035L119.092 20.5131L119.102 20.508L118.676 19.6035ZM124.062 20.6699L123.316 21.3355L123.32 21.3393L124.062 20.6699ZM123.529 31.3066L124.331 31.905L124.334 31.9002L123.529 31.3066ZM121.861 33.043L122.459 33.8445L122.467 33.8384L121.861 33.043ZM120.098 34L119.769 33.0556L119.756 33.0602L120.098 34ZM115.832 33.5762L115.259 34.3954L115.266 34.4002L115.832 33.5762ZM114.123 31.252L115.053 30.8848L113.827 27.7788L113.144 31.0474L114.123 31.252ZM113.549 34V35H114.361L114.528 34.2045L113.549 34ZM115.039 28.0391L116.039 28.0685L116.039 28.0538V28.0391H115.039ZM115.025 28.5039L114.026 28.4745L114.025 28.4892V28.5039H115.025ZM120.508 31.4023L121.149 32.1698L121.15 32.169L120.508 31.4023ZM122.107 22.1602L121.351 22.8143L121.356 22.8201L122.107 22.1602ZM117.473 22.1875L118.148 22.9254L118.152 22.9209L117.473 22.1875ZM115.6 25.3594L116.543 25.6901L116.543 25.69L115.6 25.3594ZM112.354 34.2043L116.537 14.1614L114.58 13.7527L110.396 33.7957L112.354 34.2043ZM115.559 14.957H118.033V12.957H115.559V14.957ZM117.054 13.7534L115.564 20.9174L117.522 21.3247L119.012 14.1607L117.054 13.7534ZM117.219 21.8575C117.962 21.1757 118.585 20.7446 119.092 20.513L118.26 18.694C117.491 19.0457 116.692 19.6264 115.866 20.3847L117.219 21.8575ZM119.102 20.508C119.609 20.2689 120.129 20.1523 120.672 20.1523V18.1523C119.829 18.1523 119.018 18.3365 118.249 18.699L119.102 20.508ZM120.672 20.1523C121.745 20.1523 122.604 20.537 123.316 21.3355L124.809 20.0043C123.716 18.7794 122.314 18.1523 120.672 18.1523V20.1523ZM123.32 21.3393C124.008 22.103 124.43 23.2979 124.43 25.0859H126.43C126.43 23.0094 125.94 21.2603 124.805 20.0006L123.32 21.3393ZM124.43 25.0859C124.43 26.2762 124.261 27.341 123.937 28.2898L125.829 28.9368C126.234 27.7528 126.43 26.4659 126.43 25.0859H124.43ZM123.937 28.2898C123.597 29.282 123.189 30.0834 122.724 30.7131L124.334 31.9002C124.945 31.0715 125.439 30.0773 125.829 28.9368L123.937 28.2898ZM122.728 30.7083C122.233 31.3713 121.74 31.8781 121.255 32.2475L122.467 33.8384C123.131 33.3328 123.75 32.6821 124.331 31.905L122.728 30.7083ZM121.263 32.2414C120.761 32.6163 120.263 32.8835 119.769 33.0557L120.427 34.9443C121.136 34.6972 121.813 34.3264 122.459 33.8445L121.263 32.2414ZM119.756 33.0602C119.248 33.2451 118.785 33.3281 118.361 33.3281V35.3281C119.05 35.3281 119.745 35.1924 120.439 34.9398L119.756 33.0602ZM118.361 33.3281C117.589 33.3281 116.947 33.1294 116.399 32.7521L115.266 34.4002C116.175 35.0256 117.219 35.3281 118.361 35.3281V33.3281ZM116.405 32.7569C115.874 32.3846 115.41 31.7879 115.053 30.8848L113.193 31.6191C113.657 32.7941 114.332 33.7469 115.259 34.3954L116.405 32.7569ZM113.144 31.0474L112.57 33.7955L114.528 34.2045L115.102 31.4565L113.144 31.0474ZM113.549 33H111.375V35H113.549V33ZM114.039 28.0097L114.026 28.4745L116.025 28.5333L116.039 28.0685L114.039 28.0097ZM114.025 28.5039C114.025 29.8904 114.357 31.1137 115.176 32.0092L116.652 30.6587C116.287 30.26 116.025 29.5965 116.025 28.5039H114.025ZM115.176 32.0092C115.96 32.8651 116.967 33.3047 118.129 33.3047V31.3047C117.523 31.3047 117.053 31.0971 116.652 30.6587L115.176 32.0092ZM118.129 33.3047C119.249 33.3047 120.265 32.9081 121.149 32.1698L119.867 30.6349C119.31 31.0997 118.74 31.3047 118.129 31.3047V33.3047ZM121.15 32.169C122.061 31.406 122.739 30.2816 123.239 28.8987L121.358 28.2185C120.929 29.4059 120.413 30.1773 119.866 30.6357L121.15 32.169ZM123.239 28.8987C123.734 27.5317 123.996 26.2302 123.996 25.0039H121.996C121.996 25.9468 121.794 27.0152 121.358 28.2185L123.239 28.8987ZM123.996 25.0039C123.996 23.6278 123.661 22.414 122.859 21.5002L121.356 22.8201C121.738 23.2553 121.996 23.9373 121.996 25.0039H123.996ZM122.864 21.506C122.097 20.6194 121.1 20.1484 119.934 20.1484V22.1484C120.499 22.1484 120.951 22.3519 121.351 22.8143L122.864 21.506ZM119.934 20.1484C118.753 20.1484 117.697 20.6159 116.793 21.4541L118.152 22.9209C118.743 22.3736 119.328 22.1484 119.934 22.1484V20.1484ZM116.798 21.4496C115.883 22.2865 115.187 23.5132 114.656 25.0288L116.543 25.69C117.015 24.3435 117.568 23.4557 118.148 22.9254L116.798 21.4496ZM114.656 25.0287C114.264 26.1479 114.039 27.1611 114.039 28.0391H116.039C116.039 27.4769 116.188 26.7036 116.543 25.6901L114.656 25.0287ZM137.625 29.0645L137.727 28.0696L136.999 27.9953L136.708 28.6657L137.625 29.0645ZM140.031 29.3105L140.992 29.5891L141.326 28.4377L140.133 28.3157L140.031 29.3105ZM137.639 32.7148L136.986 31.9571L136.983 31.9595L137.639 32.7148ZM130.229 33.5898L129.739 34.462L129.75 34.4677L130.229 33.5898ZM128.178 31.416L127.28 31.8563L127.283 31.8632L128.178 31.416ZM128.574 23.5684L127.678 23.1255L127.677 23.1278L128.574 23.5684ZM131.432 20.2461L131.957 21.0971L131.962 21.0941L131.432 20.2461ZM139.361 20.7656L138.639 21.4573L138.642 21.4604L139.361 20.7656ZM140.729 27.3555V28.3555H141.572L141.714 27.5238L140.729 27.3555ZM130.037 27.3555V26.3555H129.158L129.045 27.2275L130.037 27.3555ZM130.912 31.2383L130.154 31.8907L130.163 31.9009L130.912 31.2383ZM135.711 31.4707L135.15 30.6429L135.711 31.4707ZM130.434 25.4688L129.474 25.1885L129.1 26.4688H130.434V25.4688ZM138.582 25.4688V26.4688H139.547L139.581 25.5044L138.582 25.4688ZM137.666 22.0781L136.934 22.7597L136.939 22.7647L137.666 22.0781ZM132.375 22.1738L131.735 21.4056L131.731 21.4089L132.375 22.1738ZM137.523 30.0593L139.93 30.3054L140.133 28.3157L137.727 28.0696L137.523 30.0593ZM139.071 29.032C138.793 29.9882 138.135 30.9678 136.986 31.9572L138.291 33.4725C139.64 32.3109 140.576 31.0209 140.992 29.5891L139.071 29.032ZM136.983 31.9595C135.935 32.8689 134.69 33.3281 133.195 33.3281V35.3281C135.146 35.3281 136.863 34.7118 138.294 33.4702L136.983 31.9595ZM133.195 33.3281C132.279 33.3281 131.456 33.1202 130.707 32.7119L129.75 34.4677C130.806 35.0438 131.961 35.3281 133.195 35.3281V33.3281ZM130.718 32.7178C130.005 32.3179 129.46 31.7444 129.072 30.9688L127.283 31.8632C127.843 32.9835 128.665 33.8591 129.739 34.4619L130.718 32.7178ZM129.076 30.9757C128.687 30.1838 128.48 29.258 128.48 28.1758H126.48C126.48 29.518 126.739 30.7524 127.28 31.8563L129.076 30.9757ZM128.48 28.1758C128.48 26.7493 128.807 25.3636 129.472 24.009L127.677 23.1278C126.883 24.7444 126.48 26.4304 126.48 28.1758H128.48ZM129.471 24.0112C130.144 22.6481 130.981 21.6992 131.957 21.0971L130.906 19.3951C129.549 20.2331 128.481 21.499 127.678 23.1255L129.471 24.0112ZM131.962 21.0941C132.972 20.4629 134.051 20.1523 135.219 20.1523V18.1523C133.671 18.1523 132.225 18.571 130.902 19.3981L131.962 21.0941ZM135.219 20.1523C136.726 20.1523 137.829 20.6111 138.639 21.4573L140.084 20.074C138.834 18.7691 137.175 18.1523 135.219 18.1523V20.1523ZM138.642 21.4604C139.46 22.3067 139.92 23.5014 139.92 25.168H141.92C141.92 23.1157 141.341 21.3756 140.081 20.0708L138.642 21.4604ZM139.92 25.168C139.92 25.8189 139.862 26.4917 139.743 27.1872L141.714 27.5238C141.851 26.7244 141.92 25.9389 141.92 25.168H139.92ZM140.729 26.3555H130.037V28.3555H140.729V26.3555ZM129.045 27.2275C129.005 27.5425 128.982 27.8414 128.982 28.1211H130.982C130.982 27.945 130.997 27.7336 131.029 27.4834L129.045 27.2275ZM128.982 28.1211C128.982 29.6173 129.323 30.9248 130.154 31.8907L131.67 30.5859C131.262 30.1116 130.982 29.3411 130.982 28.1211H128.982ZM130.163 31.9009C130.971 32.8137 132.004 33.3047 133.209 33.3047V31.3047C132.61 31.3047 132.111 31.0847 131.661 30.5757L130.163 31.9009ZM133.209 33.3047C134.289 33.3047 135.315 32.9473 136.272 32.2985L135.15 30.6429C134.466 31.1061 133.825 31.3047 133.209 31.3047V33.3047ZM136.272 32.2985C137.272 31.6206 138.023 30.658 138.542 29.4632L136.708 28.6657C136.316 29.5673 135.79 30.2088 135.15 30.6429L136.272 32.2985ZM130.434 26.4688H138.582V24.4688H130.434V26.4688ZM139.581 25.5044C139.591 25.2488 139.596 25.0508 139.596 24.9219H137.596C137.596 25.0117 137.592 25.1783 137.583 25.4331L139.581 25.5044ZM139.596 24.9219C139.596 23.5235 139.245 22.2934 138.393 21.3915L136.939 22.7647C137.327 23.1754 137.596 23.841 137.596 24.9219H139.596ZM138.398 21.3965C137.574 20.5122 136.504 20.0801 135.273 20.0801V22.0801C135.994 22.0801 136.518 22.3133 136.934 22.7597L138.398 21.3965ZM135.273 20.0801C133.963 20.0801 132.775 20.5391 131.735 21.4056L133.015 22.942C133.725 22.3502 134.469 22.0801 135.273 22.0801V20.0801ZM131.731 21.4089C130.67 22.3024 129.938 23.5966 129.474 25.1885L131.394 25.749C131.786 24.406 132.348 23.5036 133.019 22.9387L131.731 21.4089Z" fill="#9251C5"/>
<path d="M41 1L1 1V32.5V64H41" stroke="#9251C5" stroke-width="2"/>
</svg>
