<svg width="35" height="35" viewBox="0 0 35 35" fill="none" xmlns="http://www.w3.org/2000/svg">
<path d="M15.5436 1.39999C15.2009 1.40018 14.9087 1.64838 14.8531 1.98652L14.1723 6.15507C13.3536 6.39323 12.5729 6.71458 11.8371 7.11484L8.39727 4.658C8.11917 4.45941 7.73835 4.49062 7.49629 4.73183L4.77286 7.45253C4.53262 7.69294 4.49975 8.07116 4.69492 8.34941L7.11484 11.8111C6.70842 12.5512 6.37995 13.3363 6.13594 14.1627L1.98515 14.8531C1.6481 14.9099 1.40133 15.2018 1.40137 15.5435V19.3935C1.40075 19.7332 1.64399 20.0242 1.97832 20.084L6.13184 20.8195C6.37453 21.6445 6.70091 22.4301 7.10801 23.1711L4.65801 26.5986C4.45942 26.8767 4.49063 27.2575 4.73184 27.4996L7.4539 30.223C7.69376 30.463 8.07113 30.4964 8.34941 30.3023L11.818 27.8742C12.5559 28.2768 13.3385 28.6005 14.16 28.8408L14.8531 33.0148C14.9093 33.3524 15.2013 33.5999 15.5436 33.6H19.3936C19.7336 33.6005 20.0248 33.3565 20.084 33.0217L20.8264 28.8312C21.6444 28.5873 22.4234 28.2588 23.1574 27.8537L26.6492 30.3037C26.9275 30.4989 27.3057 30.466 27.5461 30.2258L30.2682 27.501C30.5104 27.2582 30.5411 26.8756 30.3406 26.5973L27.851 23.141C28.249 22.4105 28.5697 21.6362 28.808 20.8236L33.0203 20.0853C33.3552 20.0262 33.5991 19.735 33.5986 19.3949V15.5449C33.5985 15.2022 33.3502 14.9101 33.0121 14.8545L28.8066 14.1668C28.5668 13.3552 28.2452 12.5823 27.8469 11.8521L30.3024 8.3535C30.4975 8.07526 30.4647 7.69703 30.2244 7.45663L27.501 4.73456C27.2582 4.49227 26.8756 4.46159 26.5973 4.66209L23.1506 7.14081C22.4162 6.73735 21.6368 6.41058 20.8168 6.16874L20.084 1.97968C20.0254 1.64426 19.7341 1.39961 19.3936 1.39999H15.5436ZM16.1397 2.79999H18.8057L19.5029 6.77988C19.5503 7.05259 19.754 7.27176 20.0225 7.33906C21.0462 7.59418 22.0077 7.99858 22.8853 8.52988C23.1252 8.67521 23.4286 8.66337 23.6564 8.4998L26.9322 6.1455L28.8176 8.03086L26.4852 11.3545C26.326 11.581 26.3153 11.88 26.4578 12.1174C26.9839 12.993 27.3828 13.9485 27.6377 14.9666C27.7055 15.2376 27.928 15.4424 28.2037 15.4875L32.1986 16.141V18.807L28.1955 19.5098C27.9226 19.5581 27.7038 19.7629 27.6377 20.032C27.3858 21.0489 26.9866 22.0043 26.4605 22.8799C26.3162 23.1197 26.3286 23.4224 26.492 23.6496L28.8572 26.9322L26.9719 28.8189L23.6537 26.4906C23.426 26.3311 23.1256 26.3215 22.8881 26.466C22.0148 26.9973 21.0523 27.4036 20.032 27.6623C19.7649 27.7296 19.562 27.9474 19.5139 28.2187L18.807 32.2H16.1369L15.4779 28.2365C15.4321 27.9609 15.2268 27.739 14.9557 27.6719C13.9313 27.4194 12.9655 27.0156 12.0818 26.4851C11.8448 26.3432 11.5465 26.3539 11.3203 26.5125L8.02813 28.8189L6.14142 26.9295L8.46837 23.6769C8.63092 23.4492 8.64221 23.1465 8.49709 22.9072C7.96087 22.0212 7.55534 21.0554 7.29943 20.0265C7.23254 19.7588 7.01464 19.5554 6.74298 19.507L2.80138 18.807V16.1369L6.74025 15.482C7.01543 15.4364 7.23726 15.2317 7.3049 14.9611C7.56301 13.9287 7.96834 12.9631 8.50255 12.0791C8.64649 11.842 8.63683 11.5422 8.47794 11.3148L6.17833 8.02811L8.06642 6.14139L11.3299 8.47381C11.5568 8.63559 11.858 8.64741 12.0969 8.50389C12.9758 7.97598 13.9439 7.57544 14.9693 7.324C15.2418 7.25692 15.4479 7.0336 15.493 6.75662L16.1397 2.79999ZM17.5 11.9C14.4155 11.9 11.9 14.4155 11.9 17.5C11.9 20.5845 14.4155 23.1 17.5 23.1C20.5845 23.1 23.1 20.5845 23.1 17.5C23.1 14.4155 20.5845 11.9 17.5 11.9ZM17.5 13.3C19.8279 13.3 21.7 15.1721 21.7 17.5C21.7 19.8279 19.8279 21.7 17.5 21.7C15.1721 21.7 13.3 19.8279 13.3 17.5C13.3 15.1721 15.1721 13.3 17.5 13.3Z" fill="#D6BBEB"/>
</svg>
