<svg width="24" height="24" viewBox="0 0 24 24" fill="none" xmlns="http://www.w3.org/2000/svg">
<path fill-rule="evenodd" clip-rule="evenodd" d="M1.91992 18.0748C1.91992 13.09 5.52102 8.98628 10.2265 8.12296V5.94386C10.2265 4.19639 12.214 3.21338 13.5781 4.28624L21.2782 10.3424C22.3471 11.1831 22.3472 12.8168 21.2782 13.6576L13.5782 19.7138C12.214 20.7866 10.2265 19.8036 10.2265 18.0561V16.2175C8.14164 16.6222 6.5001 17.7079 5.5451 19.1714C4.99542 20.0137 4.04797 20.1884 3.35941 19.9924C2.66265 19.7942 1.92002 19.1218 1.91992 18.0748ZM12.4448 5.75968C12.2932 5.64047 12.0724 5.74969 12.0724 5.94386V9.58896C12.0724 9.71782 11.9684 9.82196 11.8411 9.82542C8.46456 9.91715 5.59121 12.0107 4.38014 14.9545C4.19789 15.3974 4.05329 15.8596 3.95028 16.3372C3.83556 16.8691 3.77242 17.4199 3.76633 17.9844C3.766 18.0145 3.76584 18.0446 3.76584 18.0748C3.76585 18.2007 3.93583 18.2484 4.00439 18.1433C4.01935 18.1204 4.03443 18.0975 4.04962 18.0748C4.04963 18.0748 4.04961 18.0748 4.04962 18.0748C4.35142 17.6227 4.69857 17.2046 5.08561 16.8234C5.34859 16.5644 5.62998 16.3225 5.92811 16.0984C7.51196 14.908 9.56794 14.2234 11.8414 14.1799C11.9688 14.1775 12.0725 14.2822 12.0725 14.4111V18.0561C12.0725 18.2503 12.2933 18.3595 12.4449 18.2403L20.1449 12.1841C20.2637 12.0908 20.2637 11.9093 20.1449 11.8158L12.4448 5.75968Z" fill="white"/>
</svg>
