<svg width="25" height="26" viewBox="0 0 25 26" fill="none" xmlns="http://www.w3.org/2000/svg">
<path d="M12.5 2.03436C6.20703 2.03436 1.03125 6.47277 1.03125 12.0183C1.03125 15.2361 2.8125 18.0744 5.5 19.8897C5.4961 19.9973 5.5 20.1636 5.35938 20.6878C5.18554 21.3353 4.84179 22.2527 4.125 23.2699L3.60938 23.9897L4.5 24.0054C7.58789 24.019 9.37696 21.9867 9.65625 21.658C10.5684 21.8615 11.5176 22.0023 12.5 22.0023C18.791 22.0023 23.9688 17.5639 23.9688 12.0183C23.9688 6.47277 18.791 2.03436 12.5 2.03436ZM12.5 2.97329C18.3574 2.97329 23.0312 7.05569 23.0312 12.0183C23.0312 16.981 18.3574 21.0634 12.5 21.0634C11.498 21.0634 10.5254 20.9421 9.60938 20.7191L9.32812 20.6565L9.14062 20.8912C9.14062 20.8912 7.69531 22.5226 5.39062 22.9099C5.80664 22.1627 6.12304 21.4683 6.26562 20.9382C6.46485 20.1968 6.46875 19.6863 6.46875 19.6863V19.4359L6.25 19.295C3.63672 17.6363 1.96875 14.9936 1.96875 12.0183C1.96875 7.05569 6.64062 2.97329 12.5 2.97329Z" fill="white"/>
</svg>
