<svg width="23" height="24" viewBox="0 0 23 24" fill="none" xmlns="http://www.w3.org/2000/svg">
<path d="M11.5 0.749695C5.15465 0.749695 0 5.91221 0 12.2673C0 18.6223 5.15465 23.7848 11.5 23.7848C17.8454 23.7848 23 18.6223 23 12.2673C23 5.91221 17.8454 0.749695 11.5 0.749695ZM11.5 1.75122C17.3049 1.75122 22 6.45348 22 12.2673C22 18.081 17.3049 22.7833 11.5 22.7833C5.69509 22.7833 1 18.081 1 12.2673C1 6.45348 5.69509 1.75122 11.5 1.75122ZM11.5 5.25657C10.6716 5.25657 10 5.92917 10 6.75885C10 7.58854 10.6716 8.26115 11.5 8.26115C12.3284 8.26115 13 7.58854 13 6.75885C13 5.92917 12.3284 5.25657 11.5 5.25657ZM9.5 10.2642V11.2657H10H10.5V17.7756H10H9.5V18.7772H10H10.5H12.5H13H13.5V17.7756H13H12.5V10.2642H12H10H9.5Z" fill="white"/>
</svg>
