<svg width="22" height="19" viewBox="0 0 22 19" fill="none" xmlns="http://www.w3.org/2000/svg">
<path d="M11 0C10.7329 3e-05 10.4769 0.10694 10.2891 0.29688L0.20312 9.09766C0.07538 9.19192 -9.99901e-06 9.34125 9.94702e-10 9.5C9.94702e-10 9.77614 0.22386 10 0.5 10H3V18C3 18.552 3.448 19 4 19H8C8.552 19 9 18.552 9 18V12H13V18C13 18.552 13.448 19 14 19H18C18.552 19 19 18.552 19 18V10H21.5C21.7761 10 22 9.77614 22 9.5C22 9.34124 21.9246 9.19192 21.7969 9.09766L11.7168 0.30274C11.7149 0.30078 11.7129 0.29883 11.7109 0.29688C11.5231 0.10694 11.2671 3e-05 11 0Z" fill="white"/>
</svg>
