<svg width="25" height="26" viewBox="0 0 25 26" fill="none" xmlns="http://www.w3.org/2000/svg">
<path d="M11.1025 1.63666C10.8578 1.63679 10.6491 1.81435 10.6094 2.05624L10.123 5.03833C9.53825 5.2087 8.98062 5.43859 8.45507 5.72492L5.99804 3.96736C5.7994 3.82529 5.52739 3.84762 5.35449 4.02017L3.40918 5.9665C3.23758 6.13848 3.2141 6.40905 3.35351 6.6081L5.08203 9.08453C4.79172 9.61395 4.5571 10.1756 4.38281 10.7668L1.41796 11.2607C1.17721 11.3013 1.00094 11.5101 1.00097 11.7546V14.5088C1.00053 14.7518 1.17427 14.96 1.41308 15.0027L4.37988 15.5289C4.55323 16.1191 4.78636 16.6811 5.07714 17.2112L3.32714 19.6632C3.1853 19.8621 3.20759 20.1345 3.37988 20.3077L5.32421 22.256C5.49554 22.4276 5.76509 22.4515 5.96386 22.3127L8.4414 20.5757C8.9685 20.8637 9.52749 21.0953 10.1143 21.2672L10.6094 24.2532C10.6495 24.4947 10.8581 24.6717 11.1025 24.6718H13.8525C14.0954 24.6721 14.3035 24.4976 14.3457 24.2581L14.876 21.2603C15.4603 21.0858 16.0167 20.8508 16.541 20.561L19.0352 22.3137C19.2339 22.4533 19.5041 22.4298 19.6758 22.2579L21.6201 20.3087C21.7932 20.135 21.8151 19.8613 21.6719 19.6622L19.8936 17.1897C20.1779 16.667 20.407 16.1132 20.5771 15.5319L23.5859 15.0037C23.8251 14.9614 23.9994 14.7531 23.999 14.5098V11.7556C23.9989 11.5105 23.8216 11.3014 23.5801 11.2617L20.5762 10.7697C20.4048 10.1891 20.1751 9.63621 19.8906 9.11387L21.6445 6.61103C21.7839 6.41198 21.7605 6.14141 21.5889 5.96943L19.6436 4.02212C19.4701 3.8488 19.1968 3.82685 18.998 3.97029L16.5361 5.7435C16.0116 5.45488 15.4549 5.22111 14.8691 5.0481L14.3457 2.05135C14.3039 1.8114 14.0958 1.63638 13.8525 1.63666H11.1025ZM11.5283 2.63818H13.4326L13.9307 5.4853C13.9645 5.68039 14.11 5.83718 14.3018 5.88532C15.033 6.06783 15.7198 6.35713 16.3467 6.73721C16.518 6.84117 16.7347 6.8327 16.8975 6.71569L19.2373 5.03148L20.584 6.38022L18.918 8.75787C18.8043 8.91992 18.7966 9.13384 18.8984 9.30362C19.2742 9.93004 19.5592 10.6135 19.7412 11.3419C19.7897 11.5358 19.9486 11.6822 20.1455 11.7145L22.999 12.182V14.0892L20.1396 14.592C19.9447 14.6265 19.7885 14.773 19.7412 14.9656C19.5613 15.693 19.2761 16.3765 18.9004 17.0029C18.7973 17.1744 18.8061 17.3909 18.9228 17.5535L20.6123 19.9018L19.2656 21.2515L16.8955 19.5859C16.7329 19.4718 16.5182 19.4649 16.3486 19.5683C15.7249 19.9484 15.0374 20.239 14.3086 20.4241C14.1178 20.4723 13.9729 20.6281 13.9385 20.8221L13.4336 23.6702H11.5264L11.0557 20.8349C11.0229 20.6377 10.8763 20.479 10.6826 20.4309C9.95093 20.2503 9.26105 19.9614 8.62988 19.582C8.4606 19.4804 8.24752 19.4881 8.08594 19.6015L5.73438 21.2515L4.38672 19.8998L6.04883 17.5731C6.16494 17.4101 6.173 17.1936 6.06934 17.0224C5.68633 16.3886 5.39667 15.6977 5.21387 14.9616C5.1661 14.7701 5.01045 14.6246 4.81641 14.59L2.00098 14.0892V12.1791L4.81446 11.7106C5.01102 11.678 5.16947 11.5316 5.21778 11.338C5.40214 10.5994 5.69167 9.90862 6.07325 9.27622C6.17606 9.10659 6.16916 8.89215 6.05567 8.72949L4.41309 6.37825L5.76172 5.02854L8.09278 6.6971C8.25484 6.81283 8.47001 6.82129 8.64063 6.71862C9.26846 6.34096 9.95994 6.05442 10.6924 5.87455C10.887 5.82656 11.0342 5.66681 11.0664 5.46866L11.5283 2.63818ZM12.5 9.14811C10.2968 9.14811 8.5 10.9476 8.5 13.1542C8.5 15.3608 10.2968 17.1603 12.5 17.1603C14.7032 17.1603 16.5 15.3608 16.5 13.1542C16.5 10.9476 14.7032 9.14811 12.5 9.14811ZM12.5 10.1496C14.1628 10.1496 15.5 11.4889 15.5 13.1542C15.5 14.8195 14.1628 16.1588 12.5 16.1588C10.8372 16.1588 9.5 14.8195 9.5 13.1542C9.5 11.4889 10.8372 10.1496 12.5 10.1496Z" fill="white"/>
</svg>
