<svg width="25" height="26" viewBox="0 0 25 26" fill="none" xmlns="http://www.w3.org/2000/svg">
<g clip-path="url(#clip0_8_206)">
<path d="M4.00684 3.92767C3.87695 3.92974 3.75297 3.98236 3.66113 4.07438C1.39975 6.33973 -3.8147e-06 9.47287 -3.8147e-06 12.9267C-3.8147e-06 16.3806 1.39975 19.5137 3.66113 21.7791C3.8564 21.9746 4.1729 21.9746 4.36816 21.7791L5.78515 20.3599C5.98034 20.1644 5.98034 19.8474 5.78515 19.6518C4.06433 17.9279 3 15.5521 3 12.9267C3 10.3013 4.06489 7.92601 5.78613 6.20262C5.98132 6.00706 5.98132 5.69008 5.78613 5.49451L4.36816 4.07438C4.2725 3.97853 4.14214 3.9256 4.00684 3.92767ZM20.9785 3.92767C20.8483 3.92949 20.7239 3.98213 20.6318 4.07438L19.2139 5.49451C19.0187 5.69008 19.0187 6.00706 19.2139 6.20262C20.9351 7.92601 22 10.3013 22 12.9267C22 15.5521 20.9351 17.9275 19.2139 19.6509C19.0187 19.8464 19.0187 20.1634 19.2139 20.359L20.6318 21.7791C20.8271 21.9746 21.1436 21.9746 21.3389 21.7791C23.6008 19.5142 25 16.3806 25 12.9267C25 9.47287 23.6002 6.33973 21.3389 4.07438C21.2434 3.97877 21.1135 3.92586 20.9785 3.92767ZM4.04883 5.17078L4.75977 5.8828C3.06347 7.75088 2.00001 10.2102 2.00001 12.9267C2.00001 15.6432 3.06305 18.1032 4.7588 19.9717L4.04884 20.6827C2.17252 18.6327 1.00001 15.9289 1.00001 12.9267C1.00001 9.92464 2.17251 7.22077 4.04883 5.17078ZM20.9512 5.17078C22.8275 7.22077 24 9.92463 24 12.9267C24 15.9288 22.8279 18.6332 20.9512 20.6827L20.2402 19.9707C21.9365 18.1026 23 15.6433 23 12.9267C23 10.2102 21.9365 7.75088 20.2402 5.8828L20.9512 5.17078ZM7.19141 7.1171C7.06152 7.11918 6.93754 7.17179 6.8457 7.26381C5.39805 8.71421 4.5 10.7203 4.5 12.9267C4.5 15.1332 5.39804 17.1393 6.8457 18.5897C7.04097 18.7851 7.35747 18.7851 7.55273 18.5897L8.96582 17.1744C9.161 16.9789 9.161 16.6619 8.96582 16.4663C8.05995 15.5586 7.5 14.3097 7.5 12.9267C7.5 11.5438 8.05995 10.2949 8.96582 9.38716C9.161 9.1916 9.161 8.87462 8.96582 8.67905L7.55273 7.26381C7.45707 7.16796 7.32671 7.11503 7.19141 7.1171ZM17.7939 7.1171C17.6637 7.11893 17.5393 7.17156 17.4473 7.26381L16.0342 8.67905C15.839 8.87462 15.839 9.1916 16.0342 9.38716C16.9401 10.2949 17.5 11.5438 17.5 12.9267C17.5 14.3097 16.9401 15.5586 16.0342 16.4663C15.839 16.6619 15.839 16.9789 16.0342 17.1744L17.4473 18.5897C17.6425 18.7851 17.959 18.7851 18.1543 18.5897C19.602 17.1393 20.5 15.1332 20.5 12.9267C20.5 10.7203 19.602 8.71421 18.1543 7.26381C18.0589 7.16821 17.9289 7.1153 17.7939 7.1171ZM7.2334 8.36021L7.97364 9.10157C7.09239 10.148 6.5 11.4552 6.5 12.9267C6.5 14.3983 7.09238 15.7055 7.97364 16.7519L7.2334 17.4933C6.16799 16.2625 5.5 14.6808 5.5 12.9267C5.5 11.1727 6.16799 9.59099 7.2334 8.36021ZM17.7666 8.36021C18.832 9.59099 19.5 11.1727 19.5 12.9267C19.5 14.6808 18.832 16.2625 17.7666 17.4933L17.0264 16.7519C17.9076 15.7055 18.5 14.3983 18.5 12.9267C18.5 11.4552 17.9076 10.148 17.0264 9.10157L17.7666 8.36021ZM12.5 9.4214C10.567 9.4214 9 10.9908 9 12.9267C9 14.8627 10.567 16.4321 12.5 16.4321C14.433 16.4321 16 14.8627 16 12.9267C16 10.9908 14.433 9.4214 12.5 9.4214ZM12.5 10.4229C13.8785 10.4229 15 11.5461 15 12.9267C15 14.3073 13.8785 15.4306 12.5 15.4306C11.1215 15.4306 10 14.3073 10 12.9267C10 11.5461 11.1215 10.4229 12.5 10.4229Z" fill="white"/>
</g>
<defs>
<clipPath id="clip0_8_206">
<rect width="25" height="25.0382" fill="white" transform="translate(0 0.407654)"/>
</clipPath>
</defs>
</svg>
