<svg width="20" height="21" viewBox="0 0 20 21" fill="none" xmlns="http://www.w3.org/2000/svg">
<path d="M10 0.00305176C4.48603 0.00305176 0 4.49593 0 10.0183C0 15.5407 4.48603 20.0336 10 20.0336C15.514 20.0336 20 15.5407 20 10.0183C20 4.49593 15.514 0.00305176 10 0.00305176ZM10 1.50534C14.7033 1.50534 18.5 5.30783 18.5 10.0183C18.5 14.7288 14.7033 18.5313 10 18.5313C5.29669 18.5313 1.5 14.7288 1.5 10.0183C1.5 5.30783 5.29669 1.50534 10 1.50534ZM9.73828 3.9984C9.32445 4.00487 8.99406 4.34583 9 4.7603V10.7695C9.00004 11.1843 9.3358 11.5206 9.75 11.5206H13.75C14.0205 11.5244 14.2721 11.3821 14.4084 11.1481C14.5448 10.9141 14.5448 10.6248 14.4084 10.3908C14.2721 10.1568 14.0205 10.0145 13.75 10.0183H10.5V4.7603C10.5029 4.55718 10.4236 4.36154 10.28 4.21799C10.1365 4.07445 9.94108 3.99523 9.73828 3.9984Z" fill="white"/>
</svg>
